# xmcd
#
# Track frame offsets:
#	150
#	12622
#	26660
#	39612
#	56750
#	71972
#	89240
#	107310
#	121627
#	132817
#	153480
#	172410
#	184455
#	201037
#	222112
#
# Disc length: 3152 seconds
#
# Revision: 1
# Processed by: cddbd v1.5.1PL0 Copyright (c) Steve Scherf et al.
# Submitted via: EasyCDDAExtractor 6.5.7.1
#
DISCID=e10c4e0f
DTITLE=Various Artist - Isto É Gauchada
DYEAR=1900
DGENRE=Gaúcha
TTITLE0=Os Farrapos - Cuiudinho das Gurias
TTITLE1=Gaudérios do Vale - Tá Chovendo Mulher
TTITLE2=Leonardo - Maria Crispina
TTITLE3=Elton Saldanha - Ciro Beiço
TTITLE4=Pedro Ortaça - Tenteando o Bico da Gansa
TTITLE5=Os Mirins - Entorta Braço
TTITLE6=Grupo Surungaço - Crassificando as Morena
TTITLE7=Geraldo Trindade - Fé no Taco
TTITLE8=Valdomiro Garcia - Ovelho pode, Sim
TTITLE9=Tio Nanato - A Tosse do Véio
TTITLE10=Berenice Azambuja - É Disso que o Velho Gosta
TTITLE11=Irmãos Teixeira - Só Mandioca
TTITLE12=Grupo Carijó - Tô de Cambicho
TTITLE13=Ivan Taborda - Chinica
TTITLE14=Essência Nativa - Dançando cada vez mais
EXTD=
EXTT0=
EXTT1=
EXTT2=
EXTT3=
EXTT4=
EXTT5=
EXTT6=
EXTT7=
EXTT8=
EXTT9=
EXTT10=
EXTT11=
EXTT12=
EXTT13=
EXTT14=
PLAYORDER=
